<?xml version="1.0" encoding="utf-8"?>
<!-- Generator: Adobe Illustrator 19.1.0, SVG Export Plug-In . SVG Version: 6.00 Build 0)  -->
<svg version="1.1" id="Слой_1" xmlns="http://www.w3.org/2000/svg" xmlns:xlink="http://www.w3.org/1999/xlink" x="0px" y="0px"
	 viewBox="0 0 100 85" style="enable-background:new 0 0 100 85;" xml:space="preserve">
<style type="text/css">
	.st0{fill:#FFFFFF;}
</style>
<path class="st0" d="M96.7,57.7L80.8,47H71l17,13H70.2c-0.5,0-1,0.3-1.2,0.7L65,71.9H35L31,60.7c-0.2-0.4-0.7-0.7-1.2-0.7H12l17-13
	h-9.8L3.3,57.7c-2.4,1.4-3.8,4.7-3.2,7.2L3,80.3C3.6,82.9,6.4,85,9.2,85h81.6c2.8,0,5.6-2.1,6.3-4.7L99.8,65
	C100.5,62.4,99.1,59.1,96.7,57.7z M76,25.6H59.5V0h-19v25.6H24L50,50L76,25.6z"/>
</svg>
