<?xml version="1.0" encoding="utf-8"?><svg width="267" height="264" viewBox="0 0 267 264" xmlns="http://www.w3.org/2000/svg" xmlns:xlink="http://www.w3.org/1999/xlink"><view id="comment" viewBox="0 0 72 68"/><svg id="aСлой_1" viewBox="-50 -50 180 170" width="72" height="68"><style>.ast0{fill:#fff}</style><path class="ast0" d="M70 0H10C4.5 0 0 4.5 0 10v35c0 5.5 4.5 10 10 10h20l20 15V55h20c5.5 0 10-4.5 10-10V10c0-5.5-4.5-10-10-10z"/></svg><view id="download" viewBox="72 0 72 67.2"/><svg id="bСлой_1" viewBox="-62.5 -62.5 225 210" width="72" height="67.2" x="72"><style>.bst0{fill:#fff}</style><path class="bst0" d="M96.7 57.7L80.8 47H71l17 13H70.2c-.5 0-1 .3-1.2.7l-4 11.2H35l-4-11.2c-.2-.4-.7-.7-1.2-.7H12l17-13h-9.8L3.3 57.7C.9 59.1-.5 62.4.1 64.9L3 80.3c.6 2.6 3.4 4.7 6.2 4.7h81.6c2.8 0 5.6-2.1 6.3-4.7L99.8 65c.7-2.6-.7-5.9-3.1-7.3zM76 25.6H59.5V0h-19v25.6H24L50 50l26-24.4z"/></svg><view id="eye" viewBox="0 68 72 57.92"/><svg id="cСлой_1" viewBox="-62.5 -62.5 225 181" width="72" height="57.92" y="68"><style>.cst0{fill:#fff}</style><path class="cst0" d="M50 0C17.2 0 0 24.2 0 28c0 3.8 17.2 28 50 28s50-24.2 50-28c0-3.8-17.2-28-50-28zm0 49.5c-12.3 0-22.2-9.6-22.2-21.5S37.7 6.5 50 6.5 72.2 16.1 72.2 28 62.3 49.5 50 49.5zM50 28c-2-2.2 3.3-10.8 0-10.8-6.1 0-11.1 4.8-11.1 10.8 0 5.9 5 10.8 11.1 10.8S61.1 34 61.1 28c0-2.7-9.4 1.9-11.1 0z"/></svg><view id="facebook" viewBox="144 0 57.78 72"/><svg id="dСлой_1" viewBox="-56.25 -56.25 162.5 202.5" width="57.78" height="72" x="144"><style>.dst0{fill:#fff}</style><path class="dst0" d="M50 15.6H35.7c-1.7 0-3.6 2.2-3.6 5.2v10.3H50v14.7H32.1V90H15.3V45.9H0V31.2h15.3v-8.7C15.3 10.1 23.9 0 35.7 0H50v15.6z"/></svg><view id="googleplus" viewBox="0 125.92 72 71.43"/><svg id="eСлой_1" viewBox="-56 -56 201.6 200" width="72" height="71.43" y="125.92"><style>.est0{fill:#fff}</style><path class="est0" d="M4.8 21.9c0 7.5 2.5 12.9 7.4 16 4 2.6 8.7 3 11.1 3h1.4s-.8 5 2.9 10h-.2C21 50.9 0 52.2 0 69.5 0 87.1 19.3 88 23.2 88h1.3c2.5 0 8.9-.3 14.9-3.2C47.1 81 51 74.5 51 65.4c0-8.8-6-14.1-10.3-17.9-2.7-2.3-5-4.4-5-6.3 0-2 1.7-3.5 3.8-5.4 3.4-3.1 6.7-7.5 6.7-15.8 0-7.3-.9-12.2-6.8-15.3.6-.3 2.8-.6 3.8-.7 3.2-.4 7.8-.9 7.8-3.5V0H28C27.8 0 4.8.9 4.8 21.9zM41.9 67c.4 7-5.6 12.2-14.6 12.9-9.2.7-16.7-3.5-17.2-10.5-.2-3.4 1.3-6.7 4.2-9.3 2.9-2.7 7-4.3 11.4-4.6.5 0 1-.1 1.5-.1 8.5 0 14.3 5 14.7 11.6zm-6-49.9c2.3 7.9-1.2 16.2-6.6 17.8-.6.2-1.3.3-1.9.3-5 0-9.9-5-11.7-12-1-3.9-.9-7.3.2-10.6 1.2-3.2 3.2-5.4 5.8-6.1.6-.2 1.3-.3 1.9-.3 6 0 9.9 2.5 12.3 10.9zm38.7 17.3v-15h-9.5v15h-15v9.5h15v15h9.5v-15h15v-9.5h-15z"/></svg><view id="home" viewBox="72 125.92 72 68.62"/><svg id="fСлой_1" viewBox="-56.25 -56.25 202.5 193" width="72" height="68.62" x="72" y="125.92"><style>.fst0{fill:#010101}</style><path class="fst0" d="M88.8 41.8L48.7 1.6c-2.1-2.1-5.4-2.1-7.5 0l-40 40.2c-2.1 2.1-1.3 3.9 1.7 3.9h8.4v30.8c0 2.2.1 4 4.1 4h19.5V49.6h20.4v30.9h20.4c3.1 0 3.2-1.8 3.2-4V45.6h8.4c2.8 0 3.6-1.7 1.5-3.8z"/></svg><view id="pinterest" viewBox="201.78 0 64.9 72"/><svg id="gСлой_1" viewBox="-62.5 -62.5 202.8 225" width="64.9" height="72" x="201.78"><style>.gst0{fill:#fff}</style><path class="gst0" d="M32 66.1c-2.6 13.8-5.8 27-15.3 33.9-2.9-20.8 4.3-36.4 7.7-53-5.7-9.6.7-29.1 12.8-24.3 14.9 5.9-12.9 35.9 5.8 39.6 19.5 3.9 27.4-33.8 15.3-46-17.6-17.7-50.9-.4-46.8 24.9 1 6.2 7.4 8.1 2.6 16.6C2.9 55.4-.4 46.6 0 34.8.7 15.6 17.3 2.2 33.9.3 54.9-2 74.6 8 77.3 27.8c3.1 22.3-9.5 46.5-31.9 44.7-6.1-.4-8.6-3.5-13.4-6.4z"/></svg><view id="twitter" viewBox="0 197.35000000000002 72 66.02"/><svg id="hСлой_1" viewBox="-57.5 -57.5 207 189.8" width="72" height="66.02" y="197.35000000000002"><style>.hst0{fill:#fff}</style><path class="hst0" d="M92 8.8c-3.4 1.5-7 2.5-10.8 3 3.9-2.3 6.9-6 8.3-10.4-3.6 2.2-7.7 3.7-12 4.6-3.5-3.7-8.4-6-13.8-6-10.4 0-18.9 8.5-18.9 18.9 0 1.5.2 2.9.5 4.3-15.7-.8-29.6-8.3-38.9-19.7-1.6 2.8-2.6 6-2.6 9.5 0 6.5 3.3 12.3 8.4 15.7-3.1-.1-6-.9-8.5-2.4v.2c0 9.1 6.5 16.8 15.1 18.5-1.6.4-3.3.7-5 .7-1.2 0-2.4-.1-3.6-.3 2.4 7.5 9.4 13 17.6 13.1-6.5 5.1-14.6 8.1-23.4 8.1-1.5 0-3-.1-4.5-.3 8.4 5.4 18.3 8.5 28.9 8.5 34.7 0 53.7-28.8 53.7-53.7 0-.8 0-1.6-.1-2.4 3.9-2.7 7.1-6.1 9.6-9.9z"/></svg></svg>